<svg width="503" height="65" viewBox="0 0 503 65" fill="none" xmlns="http://www.w3.org/2000/svg">
<g clip-path="url(#clip0_1_539)">
<path d="M12.238 8.47266H0V63.8523H36.3085V53.1457H12.238V8.47266Z" fill="#394C1A"/>
<path d="M139.4 36.998C138.015 35.6142 136.275 34.4005 134.185 33.3615C132.094 32.3224 129.635 31.274 126.816 30.2066C125.459 29.7249 124.215 29.2621 123.09 28.8087C121.965 28.3553 120.972 27.8499 120.107 27.2879C119.246 26.7259 118.572 26.0978 118.108 25.4082C117.634 24.7187 117.402 23.8592 117.402 22.8532C117.402 21.1483 118.044 19.8873 119.324 19.0608C120.603 18.2343 122.708 17.8234 125.641 17.8234C128.255 17.8234 130.487 18.1351 132.345 18.7444C134.203 19.3583 135.884 20.062 137.405 20.8602L140.939 11.032C139.213 10.0733 137.018 9.19485 134.353 8.3967C131.689 7.59854 128.524 7.19238 124.866 7.19238C121.778 7.19238 119.009 7.57965 116.55 8.34947C114.09 9.11929 112 10.2291 110.274 11.6696C108.548 13.1101 107.213 14.8528 106.275 16.9025C105.337 18.9522 104.863 21.2569 104.863 23.8119C104.863 26.367 105.309 28.5442 106.197 30.3294C107.086 32.1146 108.238 33.6354 109.645 34.8869C111.057 36.1385 112.647 37.1775 114.427 38.004C116.199 38.8305 117.98 39.5578 119.761 40.2001C123.837 41.5886 126.711 42.8779 128.387 44.0728C130.063 45.2771 130.897 46.7789 130.897 48.5878C130.897 49.4379 130.765 50.2172 130.509 50.9067C130.25 51.5962 129.776 52.2007 129.098 52.7061C128.419 53.2114 127.513 53.6129 126.392 53.9104C124.775 54.326 123.505 54.3402 122.116 54.3496C120.558 54.3591 119.269 54.2268 118.522 54.1276C118.522 54.1276 118.221 54.0899 117.898 54.0379C110.647 52.928 106.402 51.3931 106.402 51.3931C102.722 50.1227 99.9624 48.5028 98.1224 47.256C96.9974 46.4909 95.4352 45.4141 93.6726 43.6241C91.6914 41.6122 90.284 39.4492 89.6236 38.429C87.4238 35.0522 86.3262 33.3615 85.6749 32.4594C84.3222 30.5844 82.1269 28.0389 78.5744 25.5216C78.5744 25.5216 71.1187 20.5627 58.6712 20.7138C57.4779 20.7279 56.2892 20.7846 55.1096 20.9074C53.7751 21.0444 52.5089 21.205 51.3065 21.3891C50.1042 21.5781 48.9974 21.7859 47.9726 22.0314C46.957 22.2676 46.1007 22.499 45.4221 22.7068L46.9114 32.2988C48.3233 31.7651 49.9994 31.3543 51.926 31.0614C53.8616 30.7639 55.8201 30.6222 57.8058 30.6222C60.789 30.6222 62.8796 31.2362 64.0819 32.4594C65.2843 33.6826 65.8855 35.312 65.8855 37.3333V38.4479C65.1523 38.2401 64.1958 38.0607 63.0253 37.9284C61.8457 37.8009 60.5021 37.7253 58.9854 37.7253C56.7401 37.7253 54.5676 37.9567 52.4771 38.4007C50.3865 38.8541 48.5283 39.5908 46.9114 40.5968C45.2946 41.6122 43.992 42.9676 43.031 44.6726C42.0609 46.3775 41.5827 48.4508 41.5827 50.9067C41.5827 53.3625 42.0017 55.62 42.8397 57.3769C43.6732 59.1338 44.8801 60.5601 46.4514 61.6558C48.0182 62.7515 49.8855 63.5355 52.0626 64.0078C54.2305 64.4895 56.649 64.7256 59.3179 64.7256C63.5491 64.7256 67.1608 64.4753 70.144 63.97C73.1272 63.4646 75.45 63.0254 77.1261 62.6523V37.8859C77.9914 39.1611 79.2667 40.9888 80.8699 43.1329C84.5408 48.0399 86.5585 50.7083 89.8696 53.5467C92.2698 55.6059 94.456 56.9897 95.8997 57.8256C96.7833 58.3357 99.7711 60.017 103.957 61.3535C105.851 61.9581 108.352 62.5201 113.353 63.6347C114.455 63.8802 115.375 64.0786 116.012 64.2156C116.012 64.2156 118.845 64.8484 122.138 64.9476C125.404 65.0468 132.586 65.1837 138.211 60.6687C141.764 57.8162 143.544 53.8065 143.544 48.6397C143.544 45.9761 143.207 43.7138 142.529 41.8436C142.342 41.3241 141.96 40.3182 141.194 39.1469C140.57 38.1882 139.919 37.4703 139.404 36.9791L139.4 36.998ZM65.8764 55.2186C65.2479 55.3272 64.4144 55.4075 63.3669 55.4548C62.3194 55.5114 61.2172 55.535 60.074 55.535C57.9242 55.535 56.2436 55.1761 55.0139 54.4535C53.7842 53.7356 53.1693 52.4463 53.1693 50.5808C53.1693 49.6221 53.3743 48.8239 53.7979 48.1816C54.2169 47.5393 54.7862 47.0387 55.524 46.6609C56.2573 46.2878 57.1044 46.0327 58.0746 45.9052C59.0447 45.7777 60.074 45.7021 61.1671 45.7021C61.9504 45.7021 62.8112 45.7588 63.754 45.8627C64.6922 45.9714 65.3982 46.08 65.8719 46.1792V55.2139L65.8764 55.2186Z" fill="#394C1A"/>
<path d="M162.851 4.51542C161.466 3.26388 159.836 2.63574 157.946 2.63574C156.056 2.63574 154.43 3.26388 153.041 4.51542C151.656 5.76696 150.964 7.49079 150.964 9.668C150.964 11.8452 151.656 13.569 153.041 14.8206C154.425 16.0721 156.056 16.7003 157.946 16.7003C159.836 16.7003 161.466 16.0721 162.851 14.8206C164.236 13.569 164.928 11.8547 164.928 9.668C164.928 7.48134 164.236 5.76696 162.851 4.51542Z" fill="#394C1A"/>
<path d="M163.826 21.8145H152.139V63.8522H163.826V21.8145Z" fill="#394C1A"/>
<path d="M228.532 26.2113C227.275 24.5064 225.594 23.1887 223.472 22.2583C221.354 21.3279 218.648 20.8604 215.355 20.8604C213.525 20.8604 211.525 21.2051 209.357 21.8994C207.189 22.5889 205.267 23.5476 203.591 24.7803C202.389 23.7129 200.854 22.792 199.005 22.0222C197.147 21.2523 194.728 20.8651 191.749 20.8651C190.228 20.8651 188.689 20.9312 187.122 21.0682C185.555 21.2051 184.03 21.3846 182.536 21.6302C181.046 21.8663 179.634 22.1355 178.304 22.4283C176.97 22.7259 175.804 23.0045 174.816 23.269V63.8662H186.503V31.4017C187.236 31.293 187.992 31.1986 188.775 31.123C189.559 31.0427 190.315 31.0002 191.048 31.0002C193.403 31.0002 195.061 31.7984 196.031 33.3994C196.996 34.9957 197.479 37.7113 197.479 41.551V63.8473H209.166V40.9087C209.166 39.369 209.116 37.9144 209.011 36.5542C208.906 35.1941 208.674 33.9047 208.305 32.6815C209.038 32.1998 209.967 31.8031 211.088 31.4772C212.213 31.1608 213.087 30.9955 213.716 30.9955C216.07 30.9955 217.728 31.7937 218.698 33.3947C219.664 34.991 220.147 37.7066 220.147 41.5462V63.8426H231.834V40.12C231.834 37.239 231.601 34.6321 231.128 32.2848C230.654 29.9376 229.793 27.9162 228.541 26.2066L228.532 26.216V26.2113Z" fill="#394C1A"/>
<path d="M265.933 54.2601C265.2 54.3688 264.366 54.4632 263.424 54.5388C262.485 54.6191 261.593 54.6616 260.759 54.6616C258.036 54.6616 256.182 53.8115 255.189 52.1065C254.192 50.4016 253.7 47.6293 253.7 43.7991V21.8145H242.013V45.2349C242.013 48.1158 242.304 50.7511 242.874 53.1456C243.448 55.5447 244.413 57.6086 245.775 59.3372C247.132 61.0704 248.977 62.4117 251.309 63.3752C253.632 64.3339 256.551 64.8156 260.053 64.8156C263.556 64.8156 266.799 64.5653 269.937 64.06C273.075 63.5546 275.63 63.0068 277.625 62.4164V21.8145H265.938V54.2601H265.924H265.933Z" fill="#394C1A"/>
<path d="M343.542 25.3329C342.157 23.8405 340.313 22.6976 338.008 21.8994C335.704 21.1012 332.83 20.6951 329.382 20.6951C328.025 20.6951 326.677 20.7612 325.338 20.8982C324.003 21.0351 322.737 21.1957 321.535 21.3799C320.332 21.5688 319.216 21.7766 318.201 22.0222C317.181 22.2583 316.329 22.4897 315.65 22.6976L317.144 32.2896C318.556 31.7559 320.232 31.345 322.159 31.0522C324.094 30.7547 326.053 30.613 328.043 30.613C331.026 30.613 333.117 31.2269 334.319 32.4501C335.522 33.6734 336.118 35.3027 336.118 37.3241V38.4387C335.385 38.2309 334.429 38.0514 333.258 37.9192C332.078 37.7916 330.735 37.7161 329.214 37.7161C326.968 37.7161 324.8 37.9475 322.705 38.3914C320.615 38.8448 318.756 39.5816 317.14 40.5875C315.523 41.603 314.22 42.9584 313.259 44.6633C312.294 46.3683 311.811 48.4416 311.811 50.8974C311.811 51.8467 311.888 52.7252 312.002 53.5705C311.556 53.6981 311.146 53.835 310.759 53.9578C309.593 54.3404 308.673 54.6332 307.352 54.7371C306.933 54.7654 306.518 54.7654 306.099 54.7512C304.974 54.6285 304.045 54.4112 303.335 54.0948C302.501 53.7217 301.859 53.2447 301.413 52.6543C300.967 52.0734 300.67 51.3508 300.511 50.496C300.356 49.6459 300.279 48.6872 300.279 47.6151V1.83691L288.592 3.74965V50.0284C288.592 52.267 288.811 54.2742 289.257 56.0595C289.703 57.8447 290.537 59.3654 291.766 60.617C292.996 61.8685 294.672 62.8414 296.785 63.5309C298.489 64.0835 300.616 64.433 303.144 64.5747C304.269 64.7494 305.389 64.8486 306.514 64.8486C307.029 64.8486 307.548 64.825 308.053 64.7919C310.563 64.6125 312.344 64.0268 313.774 63.5593C314.881 63.2003 315.682 62.9311 316.757 62.8697C317.663 62.8178 318.615 62.9264 319.599 63.1862C320.442 63.5168 321.321 63.8001 322.277 64.0079C324.445 64.4897 326.863 64.7258 329.532 64.7258C333.764 64.7258 337.375 64.4755 340.358 63.9702C343.342 63.4648 345.664 63.0256 347.341 62.6525V37.8719C347.341 35.2649 347.054 32.8894 346.48 30.7594C345.901 28.6294 344.927 26.8158 343.542 25.3234V25.3329ZM336.132 55.2188C335.503 55.3274 334.67 55.4077 333.622 55.4549C332.575 55.5116 331.477 55.5352 330.329 55.5352C328.18 55.5352 326.499 55.1763 325.269 54.4537C324.04 53.7358 323.425 52.4465 323.425 50.581C323.425 49.6223 323.63 48.8241 324.053 48.1818C324.472 47.5395 325.042 47.0389 325.779 46.6611C326.513 46.288 327.36 46.0329 328.33 45.9054C329.296 45.7779 330.329 45.7023 331.423 45.7023C332.206 45.7023 333.071 45.759 334.009 45.8629C334.948 45.9715 335.654 46.0802 336.127 46.1793V55.2141L336.132 55.2188Z" fill="#394C1A"/>
<path d="M383.185 54.3403C381.568 54.6048 380.046 54.737 378.635 54.737C374.663 54.737 371.871 53.698 370.282 51.6199C368.688 49.5372 367.886 46.6185 367.886 42.8308C367.886 39.2604 368.733 36.3889 370.436 34.1975C372.131 32.0156 374.713 30.9199 378.161 30.9199C379.778 30.9199 381.249 31.0804 382.556 31.4016C383.863 31.718 385.066 32.0911 386.168 32.5162L388.6 23.0044C386.874 22.2535 385.097 21.6868 383.267 21.2853C381.436 20.8886 379.422 20.6855 377.227 20.6855C373.88 20.6855 370.896 21.2759 368.291 22.4424C365.677 23.6137 363.45 25.2006 361.628 27.1936C359.797 29.196 358.399 31.5338 357.433 34.2258C356.463 36.9178 355.985 39.7751 355.985 42.8166C355.985 45.8581 356.39 48.8807 357.201 51.5727C358.016 54.2647 359.292 56.5978 361.045 58.5625C362.799 60.5366 365.03 62.0904 367.749 63.2333C370.468 64.3762 373.711 64.9524 377.473 64.9524C379.933 64.9524 382.178 64.7352 384.218 64.3101C386.259 63.8851 387.958 63.3797 389.31 62.7894L387.662 53.0415C386.304 53.6319 384.815 54.0569 383.189 54.3214V54.3308L383.185 54.3403Z" fill="#394C1A"/>
<path d="M408.826 21.8145H397.14V63.8522H408.826V21.8145Z" fill="#394C1A"/>
<path d="M407.852 4.51542C406.467 3.26388 404.837 2.63574 402.947 2.63574C401.056 2.63574 399.426 3.26388 398.041 4.51542C396.657 5.76696 395.964 7.49079 395.964 9.668C395.964 11.8452 396.657 13.569 398.041 14.8206C399.426 16.0721 401.056 16.7003 402.947 16.7003C404.837 16.7003 406.463 16.0721 407.852 14.8206C409.236 13.569 409.929 11.8547 409.929 9.668C409.929 7.48134 409.236 5.76696 407.852 4.51542Z" fill="#394C1A"/>
<path d="M447.804 6.71111L440.626 0L429.536 12.9452L434.906 17.8192L447.808 6.71111H447.804Z" fill="#394C1A"/>
<path d="M452.746 26.7737C450.965 24.861 448.838 23.3591 446.351 22.2965C443.864 21.2291 441.136 20.7002 438.157 20.7002C435.179 20.7002 432.524 21.2339 430.041 22.2965C427.555 23.3639 425.414 24.8515 423.61 26.7737C421.811 28.6959 420.395 31.0054 419.379 33.7304C418.364 36.446 417.853 39.4592 417.853 42.7604C417.853 46.0617 418.35 49.089 419.343 51.8329C420.34 54.5769 421.725 56.9241 423.496 58.8652C425.268 60.811 427.404 62.3128 429.891 63.3802C432.369 64.4476 435.133 64.9765 438.162 64.9765C441.191 64.9765 444.033 64.4428 446.515 63.3802C448.993 62.3128 451.129 60.811 452.909 58.8652C454.681 56.9194 456.048 54.5722 456.986 51.8329C457.924 49.089 458.402 46.0664 458.402 42.7604C458.402 39.4545 457.906 36.446 456.913 33.7304C455.915 31.0148 454.531 28.6959 452.759 26.7737H452.755H452.746ZM444.315 51.5023C442.876 53.6607 440.826 54.7422 438.162 54.7422C435.498 54.7422 433.43 53.6607 431.963 51.5023C430.501 49.344 429.768 46.4253 429.768 42.7557C429.768 39.0861 430.501 36.191 431.963 34.0894C433.425 31.9877 435.498 30.9345 438.162 30.9345C440.826 30.9345 442.88 31.9877 444.315 34.0894C445.759 36.191 446.469 39.0861 446.469 42.7557C446.469 46.4253 445.75 49.3487 444.315 51.5023Z" fill="#394C1A"/>
<path d="M502.153 32.2808C501.574 29.9335 500.613 27.9122 499.252 26.2025C497.894 24.4976 496.05 23.1799 493.723 22.2495C491.395 21.3191 488.48 20.8516 484.973 20.8516C481.466 20.8516 478.228 21.1019 475.09 21.6072C471.952 22.1126 469.388 22.6604 467.402 23.2507V63.848H479.089V31.4023C479.822 31.2937 480.656 31.1992 481.598 31.1237C482.537 31.0434 483.429 31.0009 484.263 31.0009C486.982 31.0009 488.835 31.799 489.828 33.4001C490.826 34.9964 491.318 37.712 491.318 41.5516V63.848H503.005V40.1206C503.005 37.2397 502.718 34.6327 502.144 32.2855H502.157L502.153 32.2808Z" fill="#394C1A"/>
<path d="M277.62 2.15332H174.807V12.2318H277.62V2.15332Z" fill="#394C1A"/>
<path d="M389.297 2.15332H315.222V12.2318H389.297V2.15332Z" fill="#394C1A"/>
</g>
<defs>
<clipPath id="clip0_1_539">
<rect width="503" height="65" fill="white"/>
</clipPath>
</defs>
</svg>
