<?xml version="1.0" encoding="UTF-8"?>
<svg id="Capa_1" data-name="Capa 1" xmlns="http://www.w3.org/2000/svg" viewBox="0 0 672.73 199.02">
  <defs>
    <style>
      .cls-1 {
        fill: #b4d380;
      }

      .cls-2 {
        fill: #3b4dea;
      }

      .cls-3 {
        fill: #fe6232;
      }

      .cls-4 {
        fill: #fff;
      }

      .cls-5 {
        fill: #8fbd42;
      }

      .cls-6 {
        fill: #1425b8;
      }
    </style>
  </defs>
  <g>
    <path class="cls-3" d="M243.63,3.85v100.27h17.83v29.42h-17.83v37.36h-35.19v-37.36h-72.07v-26.28c3.53-7.07,7.95-15.07,13.25-23.98,5.31-8.93,11.21-18.09,17.72-27.48,6.5-9.41,13.38-18.6,20.61-27.6,7.23-8.99,14.46-17.12,21.7-24.34h33.99ZM208.44,47.73c-6.27,8.19-12.94,17.12-20.01,26.76-7.07,9.64-13.02,19.52-17.84,29.64h37.85v-56.4Z"/>
    <path class="cls-3" d="M397.18,87.02c0,28.12-5.35,49.69-16.04,64.72-10.69,15.03-25.42,22.54-44.23,22.54s-33.56-7.51-44.24-22.54c-10.69-15.03-16.03-36.6-16.03-64.72,0-13.99,1.4-26.36,4.22-37.13,2.81-10.77,6.87-19.84,12.17-27.24,5.3-7.4,11.64-13.02,19.04-16.88,7.4-3.85,15.67-5.78,24.84-5.78,18.8,0,33.54,7.51,44.23,22.53,10.69,15.04,16.04,36.53,16.04,64.49ZM360.54,87.02c0-8.36-.4-15.95-1.21-22.79-.8-6.83-2.09-12.73-3.85-17.71-1.78-4.98-4.18-8.84-7.23-11.57-3.06-2.73-6.84-4.1-11.33-4.1s-8.24,1.37-11.21,4.1c-2.98,2.74-5.38,6.59-7.23,11.57-1.85,4.98-3.18,10.89-3.98,17.71-.8,6.84-1.21,14.43-1.21,22.79s.4,15.99,1.21,22.89c.8,6.92,2.13,12.86,3.98,17.84,1.84,4.98,4.25,8.84,7.23,11.57,2.97,2.73,6.71,4.09,11.21,4.09s8.27-1.36,11.33-4.09c3.05-2.74,5.45-6.59,7.23-11.57,1.77-4.98,3.05-10.93,3.85-17.84.8-6.91,1.21-14.54,1.21-22.89Z"/>
    <path class="cls-3" d="M517.47,3.85v100.27h17.83v29.42h-17.83v37.36h-35.19v-37.36h-72.07v-26.28c3.53-7.07,7.95-15.07,13.25-23.98,5.31-8.93,11.21-18.09,17.72-27.48,6.5-9.41,13.38-18.6,20.61-27.6,7.23-8.99,14.46-17.12,21.7-24.34h33.99ZM482.27,47.73c-6.27,8.19-12.94,17.12-20.01,26.76-7.07,9.64-13.02,19.52-17.84,29.64h37.85v-56.4Z"/>
    <g>
      <rect class="cls-2" x="317.89" y="119.88" width="35.89" height="114.4" transform="translate(135.44 499.54) rotate(-85.94)"/>
      <g>
        <path class="cls-4" d="M297.65,182.54l1.21-17.07,10.42.74-.15,2.04-8.03-.57-.36,5.08,7.14.51-.14,2-7.14-.51-.42,5.91,8.65.61-.15,2.04-11.04-.78Z"/>
        <path class="cls-4" d="M320.58,176.98c.24.35.54.8.91,1.37.36.56.74,1.18,1.12,1.86.38.68.76,1.39,1.12,2.12.37.74.68,1.44.93,2.12l-2.61-.19c-.29-.65-.6-1.3-.94-1.97-.34-.67-.69-1.31-1.04-1.92-.35-.61-.7-1.18-1.05-1.72-.35-.54-.67-1-.95-1.4-.22,0-.43,0-.65-.02-.22-.02-.45-.03-.68-.05l-2.14-.15-.47,6.68-2.39-.17,1.19-16.83c.68-.12,1.44-.17,2.28-.17.83,0,1.6.03,2.29.08,2.4.17,4.19.75,5.39,1.74,1.19.99,1.72,2.38,1.6,4.17-.08,1.13-.45,2.08-1.11,2.84-.66.76-1.58,1.3-2.78,1.61ZM317.52,168.72c-1.02-.07-1.8-.1-2.34-.09l-.46,6.43,1.7.12c.82.06,1.56.07,2.23.03.66-.04,1.23-.15,1.7-.35.47-.2.84-.5,1.12-.9.28-.4.44-.95.49-1.64.05-.64-.04-1.18-.26-1.63-.22-.44-.53-.8-.93-1.08s-.88-.48-1.44-.62c-.56-.14-1.16-.23-1.8-.28Z"/>
        <path class="cls-4" d="M336.07,178.08c.24.35.54.8.91,1.36.36.56.74,1.18,1.12,1.86.38.68.76,1.39,1.13,2.12.37.74.68,1.44.93,2.12l-2.61-.18c-.29-.65-.6-1.31-.94-1.97-.34-.67-.69-1.31-1.04-1.92-.35-.61-.7-1.18-1.05-1.72-.35-.54-.67-1-.95-1.4-.22,0-.43,0-.65-.02-.22-.02-.45-.03-.68-.05l-2.14-.15-.47,6.68-2.39-.17,1.19-16.83c.68-.12,1.44-.17,2.28-.17.83,0,1.6.03,2.29.08,2.4.17,4.19.75,5.39,1.74,1.19.99,1.73,2.38,1.6,4.17-.08,1.13-.45,2.08-1.11,2.84-.66.76-1.58,1.3-2.78,1.61ZM333.02,169.82c-1.02-.07-1.8-.1-2.34-.09l-.46,6.43,1.7.12c.82.06,1.56.07,2.23.03.66-.04,1.23-.15,1.7-.35.47-.2.84-.5,1.12-.9.28-.4.44-.95.49-1.64.05-.64-.04-1.18-.26-1.63-.22-.44-.53-.8-.93-1.08-.4-.28-.88-.48-1.44-.62-.56-.14-1.16-.23-1.8-.28Z"/>
        <path class="cls-4" d="M342.36,177.12c.1-1.46.41-2.74.93-3.82.51-1.08,1.17-1.98,1.97-2.67.8-.69,1.71-1.2,2.73-1.5,1.02-.31,2.09-.42,3.21-.34,1.1.08,2.13.34,3.08.79s1.77,1.07,2.46,1.87,1.21,1.77,1.56,2.92c.36,1.15.48,2.45.38,3.92s-.41,2.74-.93,3.82c-.51,1.09-1.17,1.98-1.96,2.67-.79.69-1.69,1.2-2.69,1.5s-2.06.42-3.16.35c-1.12-.08-2.16-.34-3.13-.79-.97-.45-1.8-1.07-2.49-1.87-.69-.8-1.22-1.77-1.58-2.92-.36-1.15-.48-2.45-.38-3.91ZM344.87,177.29c-.07,1.04,0,1.98.19,2.85.2.86.53,1.61.97,2.24.44.62,1,1.12,1.68,1.49s1.45.58,2.32.65c.87.06,1.66-.04,2.38-.31.71-.27,1.33-.69,1.86-1.24.53-.56.95-1.25,1.27-2.08.32-.83.52-1.76.59-2.79s0-1.98-.19-2.85c-.2-.87-.53-1.61-.97-2.24-.44-.63-1-1.12-1.66-1.49-.67-.37-1.44-.58-2.31-.65s-1.67.04-2.39.31c-.72.27-1.35.68-1.87,1.24-.53.56-.95,1.25-1.27,2.08-.32.83-.52,1.76-.59,2.79Z"/>
        <path class="cls-4" d="M370.47,180.52c.24.35.54.8.91,1.36.36.56.74,1.18,1.12,1.86s.76,1.39,1.13,2.12c.37.74.68,1.44.93,2.12l-2.61-.19c-.29-.65-.6-1.3-.94-1.97-.34-.67-.69-1.31-1.04-1.92-.35-.61-.7-1.18-1.05-1.72-.35-.54-.67-1-.95-1.4-.22,0-.43,0-.66-.02-.22-.02-.45-.03-.68-.05l-2.14-.15-.47,6.68-2.39-.17,1.19-16.83c.68-.12,1.44-.17,2.28-.17.83,0,1.6.03,2.29.08,2.4.17,4.19.75,5.39,1.74,1.19.99,1.72,2.38,1.6,4.17-.08,1.13-.45,2.08-1.11,2.84-.66.76-1.58,1.3-2.78,1.61ZM367.41,172.26c-1.02-.07-1.8-.1-2.34-.09l-.46,6.43,1.7.12c.82.06,1.56.07,2.23.03.66-.04,1.23-.15,1.7-.35.47-.2.84-.5,1.12-.9s.44-.95.49-1.64c.05-.64-.04-1.18-.26-1.63-.22-.44-.52-.8-.93-1.08-.4-.28-.88-.48-1.44-.62-.56-.14-1.16-.23-1.8-.28Z"/>
      </g>
    </g>
  </g>
  <path class="cls-2" d="M625.23,104.02h0c26.23,0,47.5,21.27,47.5,47.5h0c0,26.23-21.27,47.5-47.5,47.5h0c-26.23,0-47.5-21.27-47.5-47.5h0c0-26.23,21.27-47.5,47.5-47.5Z"/>
  <path class="cls-1" d="M649.4,137.08v3.55s-4.9,3.46-9.57.92c-4.67-2.54-5.08-5.63-5.36-8.41-.28-2.78,1.94-5.66,1.94-5.66h4.1v-6.45c-5.25-.03-9.62-.02-12.86,0-3.21.02-4.23.04-5.73.22-1.91.23-5.98.75-10.56,3.07-1.59.8-5.62,3.27-9.5,7.62-6.27,7.05-6.85,15.53-6.85,15.53,0,0-1.01,4.22.62,11.75,1.63,7.53,7.14,12.95,7.14,12.95,0,0,6.42,7.77,17.29,9.49,10.87,1.73,18.68-2.85,18.68-2.85,2.67-1.29,6.72-3.71,10.19-8.04.7-.87,2.71-3.48,4.31-7.37.27-.66,1.26-3.1,1.9-6.5.43-2.25.57-4.23.6-5.78v-14.03h-6.34ZM639.67,169.06c-6.81,5.67-15.13,5.08-17.31,4.85-1.95-.18-5.03-.72-8.3-2.51-7.69-4.21-10.16-11.94-10.8-14.37-.4-1.51-1.3-5.08-.45-9.56.11-.57.54-2.72,1.81-5.33,2.61-5.36,6.8-8.62,9.46-10.32-.98,1.61-4.17,7.33-3.11,14.98.97,6.97,4.88,11.36,6.27,12.78,1.28,1.3,6.23,6.03,14.15,6.66,6.54.52,11.4-2.04,13.14-3.07-.99,1.76-2.52,3.93-4.86,5.89h0ZM626.1,158.5s-9.31-4.2-9.25-14.78c.06-10.58,8.65-14.42,8.65-14.42,0,0-6.28,8.72.89,18.46,7.17,9.73,18.55,5.99,20.51,4.57,0,0-6.7,11.93-20.81,6.17ZM647.27,146.85c-1.09,1.13-2.22,1.64-3.08,2.01-1.81.79-3.54,1-4.89,1,0,0-6.57.21-9.96-5.4-3.39-5.61-1.27-10.52-1.27-10.52.27-.74.66-1.61,1.25-2.51,1.31-2.02,2.95-3.22,4.01-3.87-.48.94-2.26,4.68-.98,8.98.72,2.42,2.12,4.06,2.66,4.64,1.22,1.32,2.49,2.11,3.35,2.55,1.13.54,4.08,1.76,7.61.97,1.36-.3,2.46-.83,3.26-1.31-.22.77-.74,2.17-1.98,3.46h0Z"/>
  <circle class="cls-5" cx="47.5" cy="47.5" r="47.5"/>
  <path class="cls-6" d="M49.65,49.65c38.63,38.63-42.93,38.63-4.29,0-38.63,38.63-38.63-42.93,0-4.29-38.63-38.63,42.92-38.63,4.29,0,38.63-38.63,38.63,42.92,0,4.29Z"/>
</svg>