<?xml version="1.0" encoding="UTF-8"?>
<svg id="Capa_1" xmlns="http://www.w3.org/2000/svg" version="1.1" viewBox="0 0 600 600">
  <!-- Generator: Adobe Illustrator 29.7.1, SVG Export Plug-In . SVG Version: 2.1.1 Build 8)  -->
  <defs>
    <style>
      .st0 {
        fill: #f1f2fa;
      }

      .st1 {
        fill: #2c3f92;
      }
    </style>
  </defs>
  <path class="st0" d="M599,300c0,80.25-31.62,153.12-83.07,206.82-54.42,56.81-131.05,92.18-215.93,92.18s-161.5-35.37-215.93-92.18C32.62,453.12,1,380.25,1,300,1,134.87,134.87,1,300,1s299,133.87,299,299Z"/>
  <circle class="st1" cx="300" cy="193.9" r="122.15"/>
  <path class="st1" d="M505.8,482.1c-2.39,2.71-4.84,5.37-7.35,7.98-50.02,52.21-120.44,84.72-198.45,84.72s-148.43-32.51-198.45-84.72c-2.5-2.61-4.95-5.27-7.35-7.98,36.81-76.6,115.13-129.48,205.8-129.48s168.99,52.88,205.8,129.48Z"/>
</svg>