<svg width="623" height="729" viewBox="0 0 623 729" fill="none" xmlns="http://www.w3.org/2000/svg">
<path d="M79.8868 82.527C10.4005 203.077 -56.8117 86.4699 82.1608 86.4699C-56.8117 86.4699 10.4005 -30.1376 79.8868 90.4129C10.4005 -30.1376 144.829 -30.1376 75.3427 90.4129C144.829 -30.1376 212.041 86.4699 73.0687 86.4699C212.041 86.4699 144.829 203.077 75.3427 82.527C144.829 203.077 10.4005 203.077 79.8868 82.527Z" fill="#B4D380"/>
<path d="M561.501 282.298C514.705 362.907 469.439 284.935 563.033 284.935C469.439 284.935 514.705 206.962 561.501 287.571C514.705 206.962 605.238 206.962 558.441 287.571C605.238 206.962 650.503 284.935 556.91 284.935C650.503 284.935 605.238 362.907 558.441 282.298C605.238 362.907 514.705 362.907 561.501 282.298Z" fill="#B4D380"/>
<path d="M203.673 427.141L205.167 484.826L226.3 431.131L207.973 485.848L246.197 442.618L210.261 487.768L260.965 460.218L211.755 490.354L268.823 481.808L212.273 493.296L268.823 504.783L211.755 496.237L260.965 526.373L210.261 498.824L246.197 543.973L207.973 500.744L226.3 555.461L205.167 501.765L203.673 559.451L202.18 501.765L181.047 555.461L199.373 500.744L161.15 543.973L197.085 498.824L146.382 526.373L195.592 496.237L138.524 504.783L195.073 493.296L138.524 481.808L195.592 490.354L146.382 460.218L197.085 487.768L161.15 442.618L199.373 485.848L181.047 431.131L202.18 484.826L203.673 427.141Z" fill="#3B4DEA"/>
<path d="M379.217 360.465L380.44 407.703L397.746 363.732L382.739 408.54L414.04 373.139L384.612 410.112L426.133 387.552L385.835 412.23L432.568 405.232L386.26 414.639L432.568 424.046L385.835 417.047L426.133 441.726L384.612 419.166L414.04 456.138L382.739 420.738L397.746 465.546L380.44 421.574L379.217 468.813L377.994 421.574L360.689 465.546L375.696 420.738L344.395 456.138L373.822 419.166L332.301 441.726L372.6 417.047L325.866 424.046L372.175 414.639L325.866 405.232L372.6 412.23L332.301 387.552L373.822 410.112L344.395 373.139L375.696 408.54L360.689 363.732L377.994 407.703L379.217 360.465Z" fill="#D890EA"/>
<path d="M106.264 370.883C55.9293 320.548 50.335 320.548 0 370.883C50.335 320.548 50.335 314.956 0 264.619C50.335 314.954 55.9293 314.954 106.264 264.619C55.9293 314.954 55.9293 320.548 106.264 370.883Z" fill="#651644"/>
<path d="M611.541 550.074C561.206 499.739 555.611 499.739 505.276 550.074C555.611 499.739 555.611 494.147 505.276 443.81C555.611 494.145 561.206 494.145 611.541 443.81C561.206 494.145 561.206 499.739 611.541 550.074Z" fill="#651644"/>
<path d="M106.264 450.06C81.097 424.893 78.2998 424.893 53.1323 450.06C78.2998 424.893 78.2998 422.097 53.1323 396.928C78.2998 422.096 81.097 422.096 106.264 396.928C81.097 422.096 81.097 424.893 106.264 450.06Z" fill="#651644"/>
<path d="M450.06 246.908C424.893 221.741 422.096 221.741 396.928 246.908C422.096 221.741 422.096 218.945 396.928 193.776C422.096 218.944 424.893 218.944 450.06 193.776C424.893 218.944 424.893 221.741 450.06 246.908Z" fill="#651644"/>
<path d="M279.204 118.766C248.609 88.1701 245.208 88.1701 214.612 118.766C245.208 88.1701 245.208 84.771 214.612 54.1738C245.208 84.7696 248.609 84.7696 279.204 54.1738C248.609 84.7696 248.609 88.1701 279.204 118.766Z" fill="#F0B9D9"/>
<path d="M289.622 603.206C456.311 769.895 206.278 769.895 372.967 603.206C206.278 769.895 206.278 519.861 372.967 686.55C206.278 519.861 456.311 519.861 289.622 686.55C456.311 519.861 456.311 769.895 289.622 603.206Z" fill="#FE6232"/>
<path d="M540.958 31.5149C650.347 140.905 486.263 140.905 595.653 31.5149C486.263 140.905 486.263 -23.1799 595.653 86.2097C486.263 -23.1799 650.347 -23.1799 540.958 86.2097C650.347 -23.1799 650.347 140.905 540.958 31.5149Z" fill="#3B4DEA"/>
<rect x="1.04199" y="599.039" width="129.184" height="129.184" rx="64.592" fill="#3B4DEA"/>
<path d="M98.5047 643.992V648.814C98.5047 648.814 91.8456 653.518 85.4966 650.06C79.1499 646.605 78.5942 642.4 78.2078 638.622C77.8215 634.842 80.8505 630.923 80.8505 630.923H86.4268V622.157C79.2931 622.119 73.3519 622.133 68.9395 622.157C64.5701 622.181 63.1939 622.205 61.1499 622.451C58.5573 622.761 53.0216 623.475 46.7894 626.62C44.6262 627.711 39.1405 631.062 33.8672 636.986C25.3358 646.569 24.5535 658.11 24.5535 658.11C24.5535 658.11 23.1868 663.848 25.4002 674.086C27.6135 684.323 35.1026 691.69 35.1026 691.69C35.1026 691.69 43.8296 702.252 58.6122 704.599C73.3948 706.947 84.0107 700.719 84.0107 700.719C87.6479 698.961 93.1455 695.668 97.8608 689.791C98.8076 688.612 101.546 685.056 103.728 679.776C104.1 678.878 105.436 675.554 106.311 670.941C106.891 667.879 107.089 665.193 107.132 663.075V643.992H98.5047ZM85.2724 687.473C76.016 695.188 64.6917 694.379 61.7271 694.073C59.0773 693.827 54.8843 693.094 50.4457 690.663C39.9944 684.939 36.6338 674.422 35.7585 671.117C35.2171 669.064 33.9888 664.204 35.1479 658.122C35.2958 657.351 35.8873 654.418 37.6141 650.875C41.1654 643.587 46.8586 639.159 50.4815 636.848C49.1506 639.042 44.8051 646.815 46.248 657.217C47.5622 666.693 52.8904 672.662 54.7746 674.597C56.5133 676.364 63.2487 682.79 74.0197 683.652C82.916 684.364 89.5178 680.875 91.8838 679.473C90.541 681.866 88.4612 684.817 85.27 687.477L85.2724 687.473ZM66.8192 673.123C66.8192 673.123 54.164 667.414 54.2451 653.031C54.3262 638.648 66.013 633.419 66.013 633.419C66.013 633.419 57.4697 645.282 67.2222 658.516C76.9748 671.75 92.4491 666.666 95.1108 664.73C95.1108 664.73 86.0022 680.951 66.8192 673.123ZM95.6093 657.272C94.1258 658.812 92.5874 659.502 91.4211 660.011C88.9573 661.086 86.6057 661.367 84.7763 661.365C84.7763 661.365 75.8466 661.644 71.2315 654.017C66.6164 646.39 69.5071 639.713 69.5071 639.713C69.8721 638.703 70.4063 637.521 71.2053 636.294C72.9893 633.55 75.2122 631.919 76.6647 631.035C76.0112 632.315 73.5975 637.402 75.3386 643.252C76.3189 646.543 78.2245 648.773 78.9568 649.566C80.612 651.362 82.3435 652.432 83.5146 653.033C85.0554 653.771 89.0575 655.424 93.8682 654.349C95.719 653.936 97.2096 653.227 98.302 652.57C97.9967 653.623 97.2907 655.524 95.6069 657.272H95.6093Z" fill="#B4D380"/>
<path d="M413.151 64.5919C460.411 104.83 427.79 137.451 387.552 90.1915C347.313 137.451 314.693 104.83 361.952 64.5919C314.693 24.3532 347.313 -8.26712 387.552 38.9922C427.79 -8.26712 460.411 24.3532 413.151 64.5919Z" fill="#F0B9D9"/>
<path d="M239.595 263.056C358.596 323.303 309.756 372.142 249.512 253.139C189.265 372.139 140.426 323.3 259.43 263.056C140.429 202.809 189.268 153.97 249.512 272.974C309.759 153.973 358.598 202.812 239.595 263.056Z" fill="#D2C3EA"/>
<path d="M569.34 688.634C638.183 723.488 609.929 751.742 575.077 682.897C540.223 751.74 511.969 723.486 580.814 688.634C511.971 653.78 540.225 625.526 575.077 694.371C609.931 625.528 638.185 653.782 569.34 688.634Z" fill="#D2C3EA"/>
</svg>
