<svg width="217" height="242" viewBox="0 0 217 242" fill="none" xmlns="http://www.w3.org/2000/svg">
<path d="M75 92L76.6931 157.398L100.652 96.5231L79.875 158.556L123.209 109.547L82.4689 160.733L139.952 129.5L84.162 163.665L148.861 153.976L84.75 167L148.861 180.024L84.162 170.335L139.952 204.5L82.4689 173.267L123.209 224.453L79.875 175.444L100.652 237.477L76.6931 176.602L75 242L73.3069 176.602L49.3485 237.477L70.125 175.444L26.7909 224.453L67.5311 173.267L10.0481 204.5L65.838 170.335L1.13942 180.024L65.25 167L1.13942 153.976L65.838 163.665L10.0481 129.5L67.5311 160.733L26.7909 109.547L70.125 158.556L49.3485 96.5231L73.3069 157.398L75 92Z" fill="#3B4DEA"/>
<path d="M165 0L166.174 45.3427L182.785 3.13598L168.38 46.1457L198.425 12.1657L170.178 47.6548L210.033 26L171.352 49.6879L216.21 42.9703L171.76 52L216.21 61.0297L171.352 54.3121L210.033 78L170.178 56.3452L198.425 91.8343L168.38 57.8543L182.785 100.864L166.174 58.6573L165 104L163.826 58.6573L147.215 100.864L161.62 57.8543L131.575 91.8343L159.822 56.3452L119.967 78L158.648 54.3121L113.79 61.0297L158.24 52L113.79 42.9703L158.648 49.6879L119.967 26L159.822 47.6548L131.575 12.1657L161.62 46.1457L147.215 3.13598L163.826 45.3427L165 0Z" fill="#D890EA"/>
</svg>
